<?xml version="1.0" encoding="UTF-8"?>
<svg width="72px" height="72px" viewBox="0 0 72 72" version="1.1" xmlns="http://www.w3.org/2000/svg" xmlns:xlink="http://www.w3.org/1999/xlink">
    <title>Happiness_3</title>
    <g id="Happiness_3" stroke="none" stroke-width="1" fill="none" fill-rule="evenodd">
        <circle id="Oval" stroke="#000000" stroke-width="5" fill="#FFC93A" cx="36" cy="36" r="30.5"></circle>
        <path d="M22.3158644,32.245531 C22.0158644,31.445531 21.9158644,29.245531 22.1158644,27.345531 C22.3158644,24.545531 22.8158644,24.045531 24.9158644,24.045531 C27.2158644,24.045531 27.4158644,24.445531 27.4158644,28.545531 C27.4158644,32.445531 27.1158644,33.045531 25.1158644,33.345531 C23.8158644,33.545531 22.7158644,33.045531 22.3158644,32.245531 Z" id="Path" fill="#000000" fill-rule="nonzero" transform="translate(24.713839, 28.717582) scale(-1, 1) rotate(-180.000000) translate(-24.713839, -28.717582) "></path>
        <path d="M44.3158644,32.245531 C44.0158644,31.445531 43.9158644,29.245531 44.1158644,27.345531 C44.3158644,24.545531 44.8158644,24.045531 46.9158644,24.045531 C49.2158644,24.045531 49.4158644,24.445531 49.4158644,28.545531 C49.4158644,32.445531 49.1158644,33.045531 47.1158644,33.345531 C45.8158644,33.545531 44.7158644,33.045531 44.3158644,32.245531 Z" id="Path" fill="#000000" fill-rule="nonzero" transform="translate(46.713839, 28.717582) scale(-1, 1) rotate(-180.000000) translate(-46.713839, -28.717582) "></path>
        <path d="M21,46 C21,46.9764479 22.0400338,48 23.0129416,48 C23.9858494,48 49.0023788,48 50.0060835,48 C51.0097882,48 52,46.9811233 52,46 C52,45.0188767 51.0042466,44 50.0060835,44 C49.0079204,44 24.0177465,44 23.0129416,44 C22.0081366,44 21,45.0235521 21,46 Z" id="Path" fill="#000000"></path>
    </g>
</svg>