<?xml version="1.0" encoding="UTF-8"?>
<svg width="72px" height="72px" viewBox="0 0 72 72" version="1.1" xmlns="http://www.w3.org/2000/svg" xmlns:xlink="http://www.w3.org/1999/xlink">
    <title>Happiness_5</title>
    <g id="Happiness_5" stroke="none" stroke-width="1" fill="none" fill-rule="evenodd">
        <circle id="Oval" stroke="#000000" stroke-width="5" fill="#FFC93A" cx="36" cy="36" r="30.5"></circle>
        <path d="M22.3158644,34.245531 C22.0158644,33.445531 21.9158644,30.345531 22.1158644,27.445531 C22.4158644,22.445531 22.6158644,22.045531 24.9158644,22.045531 C27.3158644,22.045531 27.4158644,22.245531 27.4158644,28.545531 C27.4158644,34.545531 27.2158644,35.045531 25.1158644,35.345531 C23.9158644,35.545531 22.7158644,35.045531 22.3158644,34.245531 Z" id="Path" fill="#000000" fill-rule="nonzero" transform="translate(24.713839, 28.717582) scale(-1, 1) rotate(-180.000000) translate(-24.713839, -28.717582) "></path>
        <path d="M44.3158644,34.245531 C44.0158644,33.445531 43.9158644,30.345531 44.1158644,27.445531 C44.4158644,22.445531 44.6158644,22.045531 46.9158644,22.045531 C49.3158644,22.045531 49.4158644,22.245531 49.4158644,28.545531 C49.4158644,34.545531 49.2158644,35.045531 47.1158644,35.345531 C45.9158644,35.545531 44.7158644,35.045531 44.3158644,34.245531 Z" id="Path" fill="#000000" fill-rule="nonzero" transform="translate(46.713839, 28.717582) scale(-1, 1) rotate(-180.000000) translate(-46.713839, -28.717582) "></path>
        <path d="M20.3158644,54.2646322 C21.0158644,50.3646322 23.4158644,46.8646322 27.3158644,44.0646322 C31.2158644,41.1646322 40.6158644,41.1646322 44.5158644,44.0646322 C48.4158644,46.8646322 50.8158644,50.3646322 51.5158644,54.2646322 L52.2158644,57.4646322 L35.9158644,57.4646322 L19.7158644,57.4646322 L20.3158644,54.2646322 Z" id="Path" fill="#000000" fill-rule="nonzero" transform="translate(35.965864, 49.677132) scale(-1, 1) rotate(-180.000000) translate(-35.965864, -49.677132) "></path>
        <path d="M49.8098202,47.8896322 C49.8098202,46.3812051 48.9158644,44.4896322 48.9158644,44.2896322 C48.9158644,44.0896322 43.1158644,43.8896322 35.9158644,43.8896322 C28.8158644,43.8896322 22.9158644,44.0896322 22.9158644,44.2896322 C22.9158644,44.4896322 22.0118126,46.2896322 22.0118126,47.8896322 C22.0118126,47.8896322 23.3158644,47.8896322 35.9158644,47.8896322 C48.5158644,47.8896322 49.8098202,47.8896322 49.8098202,47.8896322 Z" id="Path" fill="#FFFFFF" fill-rule="nonzero" transform="translate(35.910816, 45.889632) scale(-1, 1) rotate(-180.000000) translate(-35.910816, -45.889632) "></path>
        <path d="M40.9882303,53.5220985 C40.9882303,53.3220985 38.9017499,53.1220985 36.3116362,53.1220985 C33.7574963,53.1220985 31.635042,53.3220985 31.635042,53.5220985 C31.635042,53.7220985 31.7789372,55.8896322 36.3116362,55.8896322 C40.8443351,55.8896322 40.9882303,53.7220985 40.9882303,53.5220985 Z" id="Path-Copy" fill="#F03710" fill-rule="nonzero" transform="translate(36.311636, 54.505865) scale(-1, 1) rotate(-180.000000) translate(-36.311636, -54.505865) "></path>
    </g>
</svg>