<?xml version="1.0" encoding="UTF-8"?>
<svg width="72px" height="72px" viewBox="0 0 72 72" version="1.1" xmlns="http://www.w3.org/2000/svg" xmlns:xlink="http://www.w3.org/1999/xlink">
    <title>Happiness_2</title>
    <g id="Happiness_2" stroke="none" stroke-width="1" fill="none" fill-rule="evenodd">
        <circle id="Oval" stroke="#000000" stroke-width="5" fill="#FFC93A" cx="36" cy="36" r="30.5"></circle>
        <path d="M22.3158644,32.245531 C22.0158644,31.445531 21.9158644,29.245531 22.1158644,27.345531 C22.3158644,24.545531 22.8158644,24.045531 24.9158644,24.045531 C27.2158644,24.045531 27.4158644,24.445531 27.4158644,28.545531 C27.4158644,32.445531 27.1158644,33.045531 25.1158644,33.345531 C23.8158644,33.545531 22.7158644,33.045531 22.3158644,32.245531 Z" id="Path" fill="#000000" fill-rule="nonzero" transform="translate(24.713839, 28.717582) scale(-1, 1) rotate(-180.000000) translate(-24.713839, -28.717582) "></path>
        <path d="M44.3158644,32.245531 C44.0158644,31.445531 43.9158644,29.245531 44.1158644,27.345531 C44.3158644,24.545531 44.8158644,24.045531 46.9158644,24.045531 C49.2158644,24.045531 49.4158644,24.445531 49.4158644,28.545531 C49.4158644,32.445531 49.1158644,33.045531 47.1158644,33.345531 C45.8158644,33.545531 44.7158644,33.045531 44.3158644,32.245531 Z" id="Path" fill="#000000" fill-rule="nonzero" transform="translate(46.713839, 28.717582) scale(-1, 1) rotate(-180.000000) translate(-46.713839, -28.717582) "></path>
        <path d="M22.4158644,50.8639694 C20.6158644,48.1639694 28.8158644,43.9639694 36.0158644,43.9639694 C43.9158644,43.9639694 51.9158644,48.3639694 49.1158644,51.1639694 C48.2158644,52.0639694 47.1158644,51.9639694 44.6158644,50.4639694 C40.4158644,47.9639694 31.3158644,47.7639694 27.6158644,50.2639694 C24.6158644,52.2639694 23.3158644,52.3639694 22.4158644,50.8639694 Z" id="Path" fill="#000000" fill-rule="nonzero" transform="translate(35.925463, 47.926801) scale(-1, -1) rotate(-180.000000) translate(-35.925463, -47.926801) "></path>
    </g>
</svg>