<?xml version="1.0" encoding="UTF-8"?>
<svg width="72px" height="72px" viewBox="0 0 72 72" version="1.1" xmlns="http://www.w3.org/2000/svg" xmlns:xlink="http://www.w3.org/1999/xlink">
    <title>StateOfMind_2_disabled</title>
    <g id="StateOfMind_2_disabled" stroke="none" stroke-width="1" fill="none" fill-rule="evenodd">
        <circle id="Oval" stroke="#7F7F7F" stroke-width="5" fill="#E5E5E5" cx="36" cy="36" r="30.5"></circle>
        <g id="Group" transform="translate(23.000000, 26.000000)" fill="#7F7F7F">
            <rect id="Rectangle" x="0" y="2" width="6" height="5"></rect>
            <rect id="Rectangle-Copy" x="7" y="0" width="6" height="7"></rect>
        </g>
        <g id="Struggling" transform="translate(10.782000, 36.959000)" fill="#7F7F7F" fill-rule="nonzero">
            <path d="M1.375,5.423 C1.375,5.72366667 1.42633333,5.98033333 1.529,6.193 C1.63166667,6.40566667 1.77466667,6.57983333 1.958,6.7155 C2.14133333,6.85116667 2.35216667,6.95016667 2.5905,7.0125 C2.82883333,7.07483333 3.08733333,7.106 3.366,7.106 C3.66666667,7.106 3.92333333,7.07116667 4.136,7.0015 C4.34866667,6.93183333 4.521,6.842 4.653,6.732 C4.785,6.622 4.88033333,6.4955 4.939,6.3525 C4.99766667,6.2095 5.027,6.06466667 5.027,5.918 C5.027,5.61733333 4.95916667,5.3955 4.8235,5.2525 C4.68783333,5.1095 4.53933333,5.00866667 4.378,4.95 C4.09933333,4.84733333 3.77483333,4.75016667 3.4045,4.6585 C3.03416667,4.56683333 2.57766667,4.44766667 2.035,4.301 C1.69766667,4.213 1.41716667,4.0975 1.1935,3.9545 C0.969833333,3.8115 0.792,3.652 0.66,3.476 C0.528,3.3 0.4345,3.113 0.3795,2.915 C0.3245,2.717 0.297,2.51533333 0.297,2.31 C0.297,1.914 0.3795,1.57116667 0.5445,1.2815 C0.7095,0.991833333 0.927666667,0.751666667 1.199,0.561 C1.47033333,0.370333333 1.77833333,0.229166667 2.123,0.1375 C2.46766667,0.0458333333 2.816,0 3.168,0 C3.57866667,0 3.9655,0.0531666667 4.3285,0.1595 C4.6915,0.265833333 5.0105,0.425333333 5.2855,0.638 C5.5605,0.850666667 5.77866667,1.11283333 5.94,1.4245 C6.10133333,1.73616667 6.182,2.09733333 6.182,2.508 L4.807,2.508 C4.77033333,2.002 4.598,1.6445 4.29,1.4355 C3.982,1.2265 3.58966667,1.122 3.113,1.122 C2.95166667,1.122 2.78666667,1.1385 2.618,1.1715 C2.44933333,1.2045 2.29533333,1.2595 2.156,1.3365 C2.01666667,1.4135 1.90116667,1.518 1.8095,1.65 C1.71783333,1.782 1.672,1.947 1.672,2.145 C1.672,2.42366667 1.75816667,2.64183333 1.9305,2.7995 C2.10283333,2.95716667 2.32833333,3.07633333 2.607,3.157 C2.63633333,3.16433333 2.75183333,3.1955 2.9535,3.2505 C3.15516667,3.3055 3.38066667,3.366 3.63,3.432 C3.87933333,3.498 4.12316667,3.56216667 4.3615,3.6245 C4.59983333,3.68683333 4.77033333,3.73266667 4.873,3.762 C5.12966667,3.84266667 5.35333333,3.95266667 5.544,4.092 C5.73466667,4.23133333 5.89416667,4.39083333 6.0225,4.5705 C6.15083333,4.75016667 6.24616667,4.94266667 6.3085,5.148 C6.37083333,5.35333333 6.402,5.55866667 6.402,5.764 C6.402,6.204 6.31216667,6.57983333 6.1325,6.8915 C5.95283333,7.20316667 5.71633333,7.458 5.423,7.656 C5.12966667,7.854 4.796,7.99883333 4.422,8.0905 C4.048,8.18216667 3.66666667,8.228 3.278,8.228 C2.83066667,8.228 2.409,8.173 2.013,8.063 C1.617,7.953 1.27233333,7.78433333 0.979,7.557 C0.685666667,7.32966667 0.451,7.03816667 0.275,6.6825 C0.099,6.32683333 0.00733333333,5.907 0,5.423 L1.375,5.423 Z" id="Path"></path>
            <path d="M6.853,2.354 L7.799,2.354 L7.799,0.649 L9.053,0.649 L9.053,2.354 L10.186,2.354 L10.186,3.289 L9.053,3.289 L9.053,6.325 C9.053,6.457 9.0585,6.57066667 9.0695,6.666 C9.0805,6.76133333 9.10616667,6.842 9.1465,6.908 C9.18683333,6.974 9.24733333,7.0235 9.328,7.0565 C9.40866667,7.0895 9.51866667,7.106 9.658,7.106 C9.746,7.106 9.834,7.10416667 9.922,7.1005 C10.01,7.09683333 10.098,7.084 10.186,7.062 L10.186,8.03 C10.0466667,8.04466667 9.911,8.05933333 9.779,8.074 C9.647,8.08866667 9.51133333,8.096 9.372,8.096 C9.042,8.096 8.77616667,8.06483333 8.5745,8.0025 C8.37283333,7.94016667 8.21516667,7.8485 8.1015,7.7275 C7.98783333,7.6065 7.91083333,7.45433333 7.8705,7.271 C7.83016667,7.08766667 7.80633333,6.87866667 7.799,6.644 L7.799,3.289 L6.853,3.289 L6.853,2.354 Z" id="Path"></path>
            <path d="M11.088,2.354 L12.265,2.354 L12.265,3.454 L12.287,3.454 C12.3236667,3.3 12.3951667,3.14966667 12.5015,3.003 C12.6078333,2.85633333 12.7361667,2.7225 12.8865,2.6015 C13.0368333,2.4805 13.2036667,2.38333333 13.387,2.31 C13.5703333,2.23666667 13.7573333,2.2 13.948,2.2 C14.0946667,2.2 14.1955,2.20366667 14.2505,2.211 C14.3055,2.21833333 14.3623333,2.22566667 14.421,2.233 L14.421,3.443 C14.333,3.42833333 14.2431667,3.4155 14.1515,3.4045 C14.0598333,3.3935 13.97,3.388 13.882,3.388 C13.6693333,3.388 13.4695,3.43016667 13.2825,3.5145 C13.0955,3.59883333 12.9323333,3.7235 12.793,3.8885 C12.6536667,4.0535 12.5436667,4.257 12.463,4.499 C12.3823333,4.741 12.342,5.01966667 12.342,5.335 L12.342,8.041 L11.088,8.041 L11.088,2.354 Z" id="Path"></path>
            <path d="M19.954,8.041 L18.722,8.041 L18.722,7.249 L18.7,7.249 C18.546,7.535 18.3168333,7.76416667 18.0125,7.9365 C17.7081667,8.10883333 17.3983333,8.195 17.083,8.195 C16.335,8.195 15.7941667,8.00983333 15.4605,7.6395 C15.1268333,7.26916667 14.96,6.71 14.96,5.962 L14.96,2.354 L16.214,2.354 L16.214,5.841 C16.214,6.33966667 16.3093333,6.69166667 16.5,6.897 C16.6906667,7.10233333 16.9583333,7.205 17.303,7.205 C17.567,7.205 17.787,7.16466667 17.963,7.084 C18.139,7.00333333 18.282,6.89516667 18.392,6.7595 C18.502,6.62383333 18.5808333,6.46066667 18.6285,6.27 C18.6761667,6.07933333 18.7,5.874 18.7,5.654 L18.7,2.354 L19.954,2.354 L19.954,8.041 Z" id="Path"></path>
            <path d="M26.532,7.744 C26.532,8.602 26.2918333,9.24183333 25.8115,9.6635 C25.3311667,10.0851667 24.64,10.296 23.738,10.296 C23.452,10.296 23.1641667,10.2666667 22.8745,10.208 C22.5848333,10.1493333 22.3208333,10.0503333 22.0825,9.911 C21.8441667,9.77166667 21.6443333,9.58833333 21.483,9.361 C21.3216667,9.13366667 21.2263333,8.855 21.197,8.525 L22.451,8.525 C22.4876667,8.701 22.55,8.844 22.638,8.954 C22.726,9.064 22.8305,9.15016667 22.9515,9.2125 C23.0725,9.27483333 23.2063333,9.31516667 23.353,9.3335 C23.4996667,9.35183333 23.6536667,9.361 23.815,9.361 C24.321,9.361 24.6913333,9.23633333 24.926,8.987 C25.1606667,8.73766667 25.278,8.37833333 25.278,7.909 L25.278,7.04 L25.256,7.04 C25.08,7.35533333 24.8398333,7.601 24.5355,7.777 C24.2311667,7.953 23.903,8.041 23.551,8.041 C23.0963333,8.041 22.7095,7.96216667 22.3905,7.8045 C22.0715,7.64683333 21.8075,7.4305 21.5985,7.1555 C21.3895,6.8805 21.2373333,6.56333333 21.142,6.204 C21.0466667,5.84466667 20.999,5.45966667 20.999,5.049 C20.999,4.66766667 21.0576667,4.30466667 21.175,3.96 C21.2923333,3.61533333 21.461,3.31283333 21.681,3.0525 C21.901,2.79216667 22.1705,2.585 22.4895,2.431 C22.8085,2.277 23.1696667,2.2 23.573,2.2 C23.9323333,2.2 24.2623333,2.27516667 24.563,2.4255 C24.8636667,2.57583333 25.0946667,2.81233333 25.256,3.135 L25.278,3.135 L25.278,2.354 L26.532,2.354 L26.532,7.744 Z M23.749,7.051 C24.0276667,7.051 24.2641667,6.99416667 24.4585,6.8805 C24.6528333,6.76683333 24.8105,6.6165 24.9315,6.4295 C25.0525,6.2425 25.1405,6.02983333 25.1955,5.7915 C25.2505,5.55316667 25.278,5.313 25.278,5.071 C25.278,4.829 25.2486667,4.59433333 25.19,4.367 C25.1313333,4.13966667 25.0415,3.938 24.9205,3.762 C24.7995,3.586 24.6418333,3.44666667 24.4475,3.344 C24.2531667,3.24133333 24.0203333,3.19 23.749,3.19 C23.4703333,3.19 23.2356667,3.24866667 23.045,3.366 C22.8543333,3.48333333 22.7003333,3.6355 22.583,3.8225 C22.4656667,4.0095 22.3813333,4.22216667 22.33,4.4605 C22.2786667,4.69883333 22.253,4.93533333 22.253,5.17 C22.253,5.40466667 22.2823333,5.63383333 22.341,5.8575 C22.3996667,6.08116667 22.4895,6.281 22.6105,6.457 C22.7315,6.633 22.8855,6.776 23.0725,6.886 C23.2595,6.996 23.485,7.051 23.749,7.051 Z" id="Shape"></path>
            <path d="M33.055,7.744 C33.055,8.602 32.8148333,9.24183333 32.3345,9.6635 C31.8541667,10.0851667 31.163,10.296 30.261,10.296 C29.975,10.296 29.6871667,10.2666667 29.3975,10.208 C29.1078333,10.1493333 28.8438333,10.0503333 28.6055,9.911 C28.3671667,9.77166667 28.1673333,9.58833333 28.006,9.361 C27.8446667,9.13366667 27.7493333,8.855 27.72,8.525 L28.974,8.525 C29.0106667,8.701 29.073,8.844 29.161,8.954 C29.249,9.064 29.3535,9.15016667 29.4745,9.2125 C29.5955,9.27483333 29.7293333,9.31516667 29.876,9.3335 C30.0226667,9.35183333 30.1766667,9.361 30.338,9.361 C30.844,9.361 31.2143333,9.23633333 31.449,8.987 C31.6836667,8.73766667 31.801,8.37833333 31.801,7.909 L31.801,7.04 L31.779,7.04 C31.603,7.35533333 31.3628333,7.601 31.0585,7.777 C30.7541667,7.953 30.426,8.041 30.074,8.041 C29.6193333,8.041 29.2325,7.96216667 28.9135,7.8045 C28.5945,7.64683333 28.3305,7.4305 28.1215,7.1555 C27.9125,6.8805 27.7603333,6.56333333 27.665,6.204 C27.5696667,5.84466667 27.522,5.45966667 27.522,5.049 C27.522,4.66766667 27.5806667,4.30466667 27.698,3.96 C27.8153333,3.61533333 27.984,3.31283333 28.204,3.0525 C28.424,2.79216667 28.6935,2.585 29.0125,2.431 C29.3315,2.277 29.6926667,2.2 30.096,2.2 C30.4553333,2.2 30.7853333,2.27516667 31.086,2.4255 C31.3866667,2.57583333 31.6176667,2.81233333 31.779,3.135 L31.801,3.135 L31.801,2.354 L33.055,2.354 L33.055,7.744 Z M30.272,7.051 C30.5506667,7.051 30.7871667,6.99416667 30.9815,6.8805 C31.1758333,6.76683333 31.3335,6.6165 31.4545,6.4295 C31.5755,6.2425 31.6635,6.02983333 31.7185,5.7915 C31.7735,5.55316667 31.801,5.313 31.801,5.071 C31.801,4.829 31.7716667,4.59433333 31.713,4.367 C31.6543333,4.13966667 31.5645,3.938 31.4435,3.762 C31.3225,3.586 31.1648333,3.44666667 30.9705,3.344 C30.7761667,3.24133333 30.5433333,3.19 30.272,3.19 C29.9933333,3.19 29.7586667,3.24866667 29.568,3.366 C29.3773333,3.48333333 29.2233333,3.6355 29.106,3.8225 C28.9886667,4.0095 28.9043333,4.22216667 28.853,4.4605 C28.8016667,4.69883333 28.776,4.93533333 28.776,5.17 C28.776,5.40466667 28.8053333,5.63383333 28.864,5.8575 C28.9226667,6.08116667 29.0125,6.281 29.1335,6.457 C29.2545,6.633 29.4085,6.776 29.5955,6.886 C29.7825,6.996 30.008,7.051 30.272,7.051 Z" id="Shape"></path>
            <polygon id="Path" points="34.353 0.187 35.607 0.187 35.607 8.041 34.353 8.041"></polygon>
            <path d="M37.004,0.187 L38.258,0.187 L38.258,1.375 L37.004,1.375 L37.004,0.187 Z M37.004,2.354 L38.258,2.354 L38.258,8.041 L37.004,8.041 L37.004,2.354 Z" id="Shape"></path>
            <path d="M39.622,2.354 L40.81,2.354 L40.81,3.19 L40.832,3.212 C41.0226667,2.89666667 41.272,2.64916667 41.58,2.4695 C41.888,2.28983333 42.229,2.2 42.603,2.2 C43.2263333,2.2 43.7176667,2.36133333 44.077,2.684 C44.4363333,3.00666667 44.616,3.49066667 44.616,4.136 L44.616,8.041 L43.362,8.041 L43.362,4.466 C43.3473333,4.01866667 43.252,3.69416667 43.076,3.4925 C42.9,3.29083333 42.625,3.19 42.251,3.19 C42.0383333,3.19 41.8476667,3.2285 41.679,3.3055 C41.5103333,3.3825 41.3673333,3.48883333 41.25,3.6245 C41.1326667,3.76016667 41.041,3.91966667 40.975,4.103 C40.909,4.28633333 40.876,4.48066667 40.876,4.686 L40.876,8.041 L39.622,8.041 L39.622,2.354 Z" id="Path"></path>
            <path d="M51.194,7.744 C51.194,8.602 50.9538333,9.24183333 50.4735,9.6635 C49.9931667,10.0851667 49.302,10.296 48.4,10.296 C48.114,10.296 47.8261667,10.2666667 47.5365,10.208 C47.2468333,10.1493333 46.9828333,10.0503333 46.7445,9.911 C46.5061667,9.77166667 46.3063333,9.58833333 46.145,9.361 C45.9836667,9.13366667 45.8883333,8.855 45.859,8.525 L47.113,8.525 C47.1496667,8.701 47.212,8.844 47.3,8.954 C47.388,9.064 47.4925,9.15016667 47.6135,9.2125 C47.7345,9.27483333 47.8683333,9.31516667 48.015,9.3335 C48.1616667,9.35183333 48.3156667,9.361 48.477,9.361 C48.983,9.361 49.3533333,9.23633333 49.588,8.987 C49.8226667,8.73766667 49.94,8.37833333 49.94,7.909 L49.94,7.04 L49.918,7.04 C49.742,7.35533333 49.5018333,7.601 49.1975,7.777 C48.8931667,7.953 48.565,8.041 48.213,8.041 C47.7583333,8.041 47.3715,7.96216667 47.0525,7.8045 C46.7335,7.64683333 46.4695,7.4305 46.2605,7.1555 C46.0515,6.8805 45.8993333,6.56333333 45.804,6.204 C45.7086667,5.84466667 45.661,5.45966667 45.661,5.049 C45.661,4.66766667 45.7196667,4.30466667 45.837,3.96 C45.9543333,3.61533333 46.123,3.31283333 46.343,3.0525 C46.563,2.79216667 46.8325,2.585 47.1515,2.431 C47.4705,2.277 47.8316667,2.2 48.235,2.2 C48.5943333,2.2 48.9243333,2.27516667 49.225,2.4255 C49.5256667,2.57583333 49.7566667,2.81233333 49.918,3.135 L49.94,3.135 L49.94,2.354 L51.194,2.354 L51.194,7.744 Z M48.411,7.051 C48.6896667,7.051 48.9261667,6.99416667 49.1205,6.8805 C49.3148333,6.76683333 49.4725,6.6165 49.5935,6.4295 C49.7145,6.2425 49.8025,6.02983333 49.8575,5.7915 C49.9125,5.55316667 49.94,5.313 49.94,5.071 C49.94,4.829 49.9106667,4.59433333 49.852,4.367 C49.7933333,4.13966667 49.7035,3.938 49.5825,3.762 C49.4615,3.586 49.3038333,3.44666667 49.1095,3.344 C48.9151667,3.24133333 48.6823333,3.19 48.411,3.19 C48.1323333,3.19 47.8976667,3.24866667 47.707,3.366 C47.5163333,3.48333333 47.3623333,3.6355 47.245,3.8225 C47.1276667,4.0095 47.0433333,4.22216667 46.992,4.4605 C46.9406667,4.69883333 46.915,4.93533333 46.915,5.17 C46.915,5.40466667 46.9443333,5.63383333 47.003,5.8575 C47.0616667,6.08116667 47.1515,6.281 47.2725,6.457 C47.3935,6.633 47.5475,6.776 47.7345,6.886 C47.9215,6.996 48.147,7.051 48.411,7.051 Z" id="Shape"></path>
        </g>
    </g>
</svg>