<?xml version="1.0" encoding="UTF-8"?>
<svg width="72px" height="72px" viewBox="0 0 72 72" version="1.1" xmlns="http://www.w3.org/2000/svg" xmlns:xlink="http://www.w3.org/1999/xlink">
    <title>StateOfMind_3</title>
    <g id="StateOfMind_3" stroke="none" stroke-width="1" fill="none" fill-rule="evenodd">
        <circle id="Oval" stroke="#000000" stroke-width="5" fill="#FFCF35" cx="36" cy="36" r="30.5"></circle>
        <g id="Surviving" transform="translate(13.427500, 36.959000)" fill="#000000" fill-rule="nonzero">
            <path d="M1.375,5.423 C1.375,5.72366667 1.42633333,5.98033333 1.529,6.193 C1.63166667,6.40566667 1.77466667,6.57983333 1.958,6.7155 C2.14133333,6.85116667 2.35216667,6.95016667 2.5905,7.0125 C2.82883333,7.07483333 3.08733333,7.106 3.366,7.106 C3.66666667,7.106 3.92333333,7.07116667 4.136,7.0015 C4.34866667,6.93183333 4.521,6.842 4.653,6.732 C4.785,6.622 4.88033333,6.4955 4.939,6.3525 C4.99766667,6.2095 5.027,6.06466667 5.027,5.918 C5.027,5.61733333 4.95916667,5.3955 4.8235,5.2525 C4.68783333,5.1095 4.53933333,5.00866667 4.378,4.95 C4.09933333,4.84733333 3.77483333,4.75016667 3.4045,4.6585 C3.03416667,4.56683333 2.57766667,4.44766667 2.035,4.301 C1.69766667,4.213 1.41716667,4.0975 1.1935,3.9545 C0.969833333,3.8115 0.792,3.652 0.66,3.476 C0.528,3.3 0.4345,3.113 0.3795,2.915 C0.3245,2.717 0.297,2.51533333 0.297,2.31 C0.297,1.914 0.3795,1.57116667 0.5445,1.2815 C0.7095,0.991833333 0.927666667,0.751666667 1.199,0.561 C1.47033333,0.370333333 1.77833333,0.229166667 2.123,0.1375 C2.46766667,0.0458333333 2.816,0 3.168,0 C3.57866667,0 3.9655,0.0531666667 4.3285,0.1595 C4.6915,0.265833333 5.0105,0.425333333 5.2855,0.638 C5.5605,0.850666667 5.77866667,1.11283333 5.94,1.4245 C6.10133333,1.73616667 6.182,2.09733333 6.182,2.508 L4.807,2.508 C4.77033333,2.002 4.598,1.6445 4.29,1.4355 C3.982,1.2265 3.58966667,1.122 3.113,1.122 C2.95166667,1.122 2.78666667,1.1385 2.618,1.1715 C2.44933333,1.2045 2.29533333,1.2595 2.156,1.3365 C2.01666667,1.4135 1.90116667,1.518 1.8095,1.65 C1.71783333,1.782 1.672,1.947 1.672,2.145 C1.672,2.42366667 1.75816667,2.64183333 1.9305,2.7995 C2.10283333,2.95716667 2.32833333,3.07633333 2.607,3.157 C2.63633333,3.16433333 2.75183333,3.1955 2.9535,3.2505 C3.15516667,3.3055 3.38066667,3.366 3.63,3.432 C3.87933333,3.498 4.12316667,3.56216667 4.3615,3.6245 C4.59983333,3.68683333 4.77033333,3.73266667 4.873,3.762 C5.12966667,3.84266667 5.35333333,3.95266667 5.544,4.092 C5.73466667,4.23133333 5.89416667,4.39083333 6.0225,4.5705 C6.15083333,4.75016667 6.24616667,4.94266667 6.3085,5.148 C6.37083333,5.35333333 6.402,5.55866667 6.402,5.764 C6.402,6.204 6.31216667,6.57983333 6.1325,6.8915 C5.95283333,7.20316667 5.71633333,7.458 5.423,7.656 C5.12966667,7.854 4.796,7.99883333 4.422,8.0905 C4.048,8.18216667 3.66666667,8.228 3.278,8.228 C2.83066667,8.228 2.409,8.173 2.013,8.063 C1.617,7.953 1.27233333,7.78433333 0.979,7.557 C0.685666667,7.32966667 0.451,7.03816667 0.275,6.6825 C0.099,6.32683333 0.00733333333,5.907 0,5.423 L1.375,5.423 Z" id="Path"></path>
            <path d="M12.419,8.041 L11.187,8.041 L11.187,7.249 L11.165,7.249 C11.011,7.535 10.7818333,7.76416667 10.4775,7.9365 C10.1731667,8.10883333 9.86333333,8.195 9.548,8.195 C8.8,8.195 8.25916667,8.00983333 7.9255,7.6395 C7.59183333,7.26916667 7.425,6.71 7.425,5.962 L7.425,2.354 L8.679,2.354 L8.679,5.841 C8.679,6.33966667 8.77433333,6.69166667 8.965,6.897 C9.15566667,7.10233333 9.42333333,7.205 9.768,7.205 C10.032,7.205 10.252,7.16466667 10.428,7.084 C10.604,7.00333333 10.747,6.89516667 10.857,6.7595 C10.967,6.62383333 11.0458333,6.46066667 11.0935,6.27 C11.1411667,6.07933333 11.165,5.874 11.165,5.654 L11.165,2.354 L12.419,2.354 L12.419,8.041 Z" id="Path"></path>
            <path d="M13.739,2.354 L14.916,2.354 L14.916,3.454 L14.938,3.454 C14.9746667,3.3 15.0461667,3.14966667 15.1525,3.003 C15.2588333,2.85633333 15.3871667,2.7225 15.5375,2.6015 C15.6878333,2.4805 15.8546667,2.38333333 16.038,2.31 C16.2213333,2.23666667 16.4083333,2.2 16.599,2.2 C16.7456667,2.2 16.8465,2.20366667 16.9015,2.211 C16.9565,2.21833333 17.0133333,2.22566667 17.072,2.233 L17.072,3.443 C16.984,3.42833333 16.8941667,3.4155 16.8025,3.4045 C16.7108333,3.3935 16.621,3.388 16.533,3.388 C16.3203333,3.388 16.1205,3.43016667 15.9335,3.5145 C15.7465,3.59883333 15.5833333,3.7235 15.444,3.8885 C15.3046667,4.0535 15.1946667,4.257 15.114,4.499 C15.0333333,4.741 14.993,5.01966667 14.993,5.335 L14.993,8.041 L13.739,8.041 L13.739,2.354 Z" id="Path"></path>
            <polygon id="Path" points="17.05 2.354 18.414 2.354 19.855 6.721 19.877 6.721 21.263 2.354 22.561 2.354 20.526 8.041 19.118 8.041"></polygon>
            <path d="M23.353,0.187 L24.607,0.187 L24.607,1.375 L23.353,1.375 L23.353,0.187 Z M23.353,2.354 L24.607,2.354 L24.607,8.041 L23.353,8.041 L23.353,2.354 Z" id="Shape"></path>
            <polygon id="Path" points="25.41 2.354 26.774 2.354 28.215 6.721 28.237 6.721 29.623 2.354 30.921 2.354 28.886 8.041 27.478 8.041"></polygon>
            <path d="M31.713,0.187 L32.967,0.187 L32.967,1.375 L31.713,1.375 L31.713,0.187 Z M31.713,2.354 L32.967,2.354 L32.967,8.041 L31.713,8.041 L31.713,2.354 Z" id="Shape"></path>
            <path d="M34.331,2.354 L35.519,2.354 L35.519,3.19 L35.541,3.212 C35.7316667,2.89666667 35.981,2.64916667 36.289,2.4695 C36.597,2.28983333 36.938,2.2 37.312,2.2 C37.9353333,2.2 38.4266667,2.36133333 38.786,2.684 C39.1453333,3.00666667 39.325,3.49066667 39.325,4.136 L39.325,8.041 L38.071,8.041 L38.071,4.466 C38.0563333,4.01866667 37.961,3.69416667 37.785,3.4925 C37.609,3.29083333 37.334,3.19 36.96,3.19 C36.7473333,3.19 36.5566667,3.2285 36.388,3.3055 C36.2193333,3.3825 36.0763333,3.48883333 35.959,3.6245 C35.8416667,3.76016667 35.75,3.91966667 35.684,4.103 C35.618,4.28633333 35.585,4.48066667 35.585,4.686 L35.585,8.041 L34.331,8.041 L34.331,2.354 Z" id="Path"></path>
            <path d="M45.903,7.744 C45.903,8.602 45.6628333,9.24183333 45.1825,9.6635 C44.7021667,10.0851667 44.011,10.296 43.109,10.296 C42.823,10.296 42.5351667,10.2666667 42.2455,10.208 C41.9558333,10.1493333 41.6918333,10.0503333 41.4535,9.911 C41.2151667,9.77166667 41.0153333,9.58833333 40.854,9.361 C40.6926667,9.13366667 40.5973333,8.855 40.568,8.525 L41.822,8.525 C41.8586667,8.701 41.921,8.844 42.009,8.954 C42.097,9.064 42.2015,9.15016667 42.3225,9.2125 C42.4435,9.27483333 42.5773333,9.31516667 42.724,9.3335 C42.8706667,9.35183333 43.0246667,9.361 43.186,9.361 C43.692,9.361 44.0623333,9.23633333 44.297,8.987 C44.5316667,8.73766667 44.649,8.37833333 44.649,7.909 L44.649,7.04 L44.627,7.04 C44.451,7.35533333 44.2108333,7.601 43.9065,7.777 C43.6021667,7.953 43.274,8.041 42.922,8.041 C42.4673333,8.041 42.0805,7.96216667 41.7615,7.8045 C41.4425,7.64683333 41.1785,7.4305 40.9695,7.1555 C40.7605,6.8805 40.6083333,6.56333333 40.513,6.204 C40.4176667,5.84466667 40.37,5.45966667 40.37,5.049 C40.37,4.66766667 40.4286667,4.30466667 40.546,3.96 C40.6633333,3.61533333 40.832,3.31283333 41.052,3.0525 C41.272,2.79216667 41.5415,2.585 41.8605,2.431 C42.1795,2.277 42.5406667,2.2 42.944,2.2 C43.3033333,2.2 43.6333333,2.27516667 43.934,2.4255 C44.2346667,2.57583333 44.4656667,2.81233333 44.627,3.135 L44.649,3.135 L44.649,2.354 L45.903,2.354 L45.903,7.744 Z M43.12,7.051 C43.3986667,7.051 43.6351667,6.99416667 43.8295,6.8805 C44.0238333,6.76683333 44.1815,6.6165 44.3025,6.4295 C44.4235,6.2425 44.5115,6.02983333 44.5665,5.7915 C44.6215,5.55316667 44.649,5.313 44.649,5.071 C44.649,4.829 44.6196667,4.59433333 44.561,4.367 C44.5023333,4.13966667 44.4125,3.938 44.2915,3.762 C44.1705,3.586 44.0128333,3.44666667 43.8185,3.344 C43.6241667,3.24133333 43.3913333,3.19 43.12,3.19 C42.8413333,3.19 42.6066667,3.24866667 42.416,3.366 C42.2253333,3.48333333 42.0713333,3.6355 41.954,3.8225 C41.8366667,4.0095 41.7523333,4.22216667 41.701,4.4605 C41.6496667,4.69883333 41.624,4.93533333 41.624,5.17 C41.624,5.40466667 41.6533333,5.63383333 41.712,5.8575 C41.7706667,6.08116667 41.8605,6.281 41.9815,6.457 C42.1025,6.633 42.2565,6.776 42.4435,6.886 C42.6305,6.996 42.856,7.051 43.12,7.051 Z" id="Shape"></path>
        </g>
        <g id="Group" transform="translate(23.000000, 22.000000)" fill="#000000">
            <rect id="Rectangle" x="0" y="6" width="6" height="5"></rect>
            <rect id="Rectangle-Copy" x="7" y="4" width="6" height="7"></rect>
            <rect id="Rectangle-Copy-2" x="14" y="0" width="6" height="11"></rect>
        </g>
    </g>
</svg>