<?xml version="1.0" encoding="UTF-8"?>
<svg width="72px" height="72px" viewBox="0 0 72 72" version="1.1" xmlns="http://www.w3.org/2000/svg" xmlns:xlink="http://www.w3.org/1999/xlink">
    <title>StateOfMind_5</title>
    <g id="StateOfMind_5" stroke="none" stroke-width="1" fill="none" fill-rule="evenodd">
        <circle id="Oval" stroke="#000000" stroke-width="5" fill="#B8D434" cx="36" cy="36" r="30.5"></circle>
        <g id="Thriving" transform="translate(16.309500, 36.146000)" fill="#000000" fill-rule="nonzero">
            <polygon id="Path" points="0 0 6.358 0 6.358 1.188 3.861 1.188 3.861 7.854 2.486 7.854 2.486 1.188 0 1.188"></polygon>
            <path d="M7.095,0 L8.349,0 L8.349,2.915 L8.371,2.915 C8.525,2.65833333 8.75416667,2.44383333 9.0585,2.2715 C9.36283333,2.09916667 9.702,2.013 10.076,2.013 C10.6993333,2.013 11.1906667,2.17433333 11.55,2.497 C11.9093333,2.81966667 12.089,3.30366667 12.089,3.949 L12.089,7.854 L10.835,7.854 L10.835,4.279 C10.8203333,3.83166667 10.725,3.50716667 10.549,3.3055 C10.373,3.10383333 10.098,3.003 9.724,3.003 C9.51133333,3.003 9.32066667,3.0415 9.152,3.1185 C8.98333333,3.1955 8.84033333,3.30183333 8.723,3.4375 C8.60566667,3.57316667 8.514,3.73266667 8.448,3.916 C8.382,4.09933333 8.349,4.29366667 8.349,4.499 L8.349,7.854 L7.095,7.854 L7.095,0 Z" id="Path"></path>
            <path d="M13.409,2.167 L14.586,2.167 L14.586,3.267 L14.608,3.267 C14.6446667,3.113 14.7161667,2.96266667 14.8225,2.816 C14.9288333,2.66933333 15.0571667,2.5355 15.2075,2.4145 C15.3578333,2.2935 15.5246667,2.19633333 15.708,2.123 C15.8913333,2.04966667 16.0783333,2.013 16.269,2.013 C16.4156667,2.013 16.5165,2.01666667 16.5715,2.024 C16.6265,2.03133333 16.6833333,2.03866667 16.742,2.046 L16.742,3.256 C16.654,3.24133333 16.5641667,3.2285 16.4725,3.2175 C16.3808333,3.2065 16.291,3.201 16.203,3.201 C15.9903333,3.201 15.7905,3.24316667 15.6035,3.3275 C15.4165,3.41183333 15.2533333,3.5365 15.114,3.7015 C14.9746667,3.8665 14.8646667,4.07 14.784,4.312 C14.7033333,4.554 14.663,4.83266667 14.663,5.148 L14.663,7.854 L13.409,7.854 L13.409,2.167 Z" id="Path"></path>
            <path d="M17.314,0 L18.568,0 L18.568,1.188 L17.314,1.188 L17.314,0 Z M17.314,2.167 L18.568,2.167 L18.568,7.854 L17.314,7.854 L17.314,2.167 Z" id="Shape"></path>
            <polygon id="Path" points="19.371 2.167 20.735 2.167 22.176 6.534 22.198 6.534 23.584 2.167 24.882 2.167 22.847 7.854 21.439 7.854"></polygon>
            <path d="M25.674,0 L26.928,0 L26.928,1.188 L25.674,1.188 L25.674,0 Z M25.674,2.167 L26.928,2.167 L26.928,7.854 L25.674,7.854 L25.674,2.167 Z" id="Shape"></path>
            <path d="M28.292,2.167 L29.48,2.167 L29.48,3.003 L29.502,3.025 C29.6926667,2.70966667 29.942,2.46216667 30.25,2.2825 C30.558,2.10283333 30.899,2.013 31.273,2.013 C31.8963333,2.013 32.3876667,2.17433333 32.747,2.497 C33.1063333,2.81966667 33.286,3.30366667 33.286,3.949 L33.286,7.854 L32.032,7.854 L32.032,4.279 C32.0173333,3.83166667 31.922,3.50716667 31.746,3.3055 C31.57,3.10383333 31.295,3.003 30.921,3.003 C30.7083333,3.003 30.5176667,3.0415 30.349,3.1185 C30.1803333,3.1955 30.0373333,3.30183333 29.92,3.4375 C29.8026667,3.57316667 29.711,3.73266667 29.645,3.916 C29.579,4.09933333 29.546,4.29366667 29.546,4.499 L29.546,7.854 L28.292,7.854 L28.292,2.167 Z" id="Path"></path>
            <path d="M39.864,7.557 C39.864,8.415 39.6238333,9.05483333 39.1435,9.4765 C38.6631667,9.89816667 37.972,10.109 37.07,10.109 C36.784,10.109 36.4961667,10.0796667 36.2065,10.021 C35.9168333,9.96233333 35.6528333,9.86333333 35.4145,9.724 C35.1761667,9.58466667 34.9763333,9.40133333 34.815,9.174 C34.6536667,8.94666667 34.5583333,8.668 34.529,8.338 L35.783,8.338 C35.8196667,8.514 35.882,8.657 35.97,8.767 C36.058,8.877 36.1625,8.96316667 36.2835,9.0255 C36.4045,9.08783333 36.5383333,9.12816667 36.685,9.1465 C36.8316667,9.16483333 36.9856667,9.174 37.147,9.174 C37.653,9.174 38.0233333,9.04933333 38.258,8.8 C38.4926667,8.55066667 38.61,8.19133333 38.61,7.722 L38.61,6.853 L38.588,6.853 C38.412,7.16833333 38.1718333,7.414 37.8675,7.59 C37.5631667,7.766 37.235,7.854 36.883,7.854 C36.4283333,7.854 36.0415,7.77516667 35.7225,7.6175 C35.4035,7.45983333 35.1395,7.2435 34.9305,6.9685 C34.7215,6.6935 34.5693333,6.37633333 34.474,6.017 C34.3786667,5.65766667 34.331,5.27266667 34.331,4.862 C34.331,4.48066667 34.3896667,4.11766667 34.507,3.773 C34.6243333,3.42833333 34.793,3.12583333 35.013,2.8655 C35.233,2.60516667 35.5025,2.398 35.8215,2.244 C36.1405,2.09 36.5016667,2.013 36.905,2.013 C37.2643333,2.013 37.5943333,2.08816667 37.895,2.2385 C38.1956667,2.38883333 38.4266667,2.62533333 38.588,2.948 L38.61,2.948 L38.61,2.167 L39.864,2.167 L39.864,7.557 Z M37.081,6.864 C37.3596667,6.864 37.5961667,6.80716667 37.7905,6.6935 C37.9848333,6.57983333 38.1425,6.4295 38.2635,6.2425 C38.3845,6.0555 38.4725,5.84283333 38.5275,5.6045 C38.5825,5.36616667 38.61,5.126 38.61,4.884 C38.61,4.642 38.5806667,4.40733333 38.522,4.18 C38.4633333,3.95266667 38.3735,3.751 38.2525,3.575 C38.1315,3.399 37.9738333,3.25966667 37.7795,3.157 C37.5851667,3.05433333 37.3523333,3.003 37.081,3.003 C36.8023333,3.003 36.5676667,3.06166667 36.377,3.179 C36.1863333,3.29633333 36.0323333,3.4485 35.915,3.6355 C35.7976667,3.8225 35.7133333,4.03516667 35.662,4.2735 C35.6106667,4.51183333 35.585,4.74833333 35.585,4.983 C35.585,5.21766667 35.6143333,5.44683333 35.673,5.6705 C35.7316667,5.89416667 35.8215,6.094 35.9425,6.27 C36.0635,6.446 36.2175,6.589 36.4045,6.699 C36.5915,6.809 36.817,6.864 37.081,6.864 Z" id="Shape"></path>
        </g>
        <g id="Group" transform="translate(23.000000, 20.000000)" fill="#000000">
            <rect id="Rectangle" x="0" y="8" width="6" height="5"></rect>
            <rect id="Rectangle-Copy" x="7" y="6" width="6" height="7"></rect>
            <rect id="Rectangle-Copy-2" x="14" y="2" width="6" height="11"></rect>
            <rect id="Rectangle-Copy-3" x="21" y="0" width="6" height="13"></rect>
        </g>
    </g>
</svg>