<?xml version="1.0" encoding="UTF-8"?>
<svg width="72px" height="72px" viewBox="0 0 72 72" version="1.1" xmlns="http://www.w3.org/2000/svg" xmlns:xlink="http://www.w3.org/1999/xlink">
    <title>StateOfMind_1</title>
    <g id="StateOfMind_1" stroke="none" stroke-width="1" fill="none" fill-rule="evenodd">
        <circle id="Oval" stroke="#000000" stroke-width="5" fill="#E82E3C" cx="36" cy="36" r="30.5"></circle>
        <g id="In-Crisis" transform="translate(16.854000, 36.959000)" fill="#000000" fill-rule="nonzero">
            <polygon id="Path" points="0 0.187 1.375 0.187 1.375 8.041 0 8.041"></polygon>
            <path d="M2.882,2.354 L4.07,2.354 L4.07,3.19 L4.092,3.212 C4.28266667,2.89666667 4.532,2.64916667 4.84,2.4695 C5.148,2.28983333 5.489,2.2 5.863,2.2 C6.48633333,2.2 6.97766667,2.36133333 7.337,2.684 C7.69633333,3.00666667 7.876,3.49066667 7.876,4.136 L7.876,8.041 L6.622,8.041 L6.622,4.466 C6.60733333,4.01866667 6.512,3.69416667 6.336,3.4925 C6.16,3.29083333 5.885,3.19 5.511,3.19 C5.29833333,3.19 5.10766667,3.2285 4.939,3.3055 C4.77033333,3.3825 4.62733333,3.48883333 4.51,3.6245 C4.39266667,3.76016667 4.301,3.91966667 4.235,4.103 C4.169,4.28633333 4.136,4.48066667 4.136,4.686 L4.136,8.041 L2.882,8.041 L2.882,2.354 Z" id="Path"></path>
            <path d="M17.732,2.684 C17.6733333,2.45666667 17.5926667,2.24766667 17.49,2.057 C17.3873333,1.86633333 17.2553333,1.70133333 17.094,1.562 C16.9326667,1.42266667 16.7438333,1.3145 16.5275,1.2375 C16.3111667,1.1605 16.06,1.122 15.774,1.122 C15.356,1.122 14.9948333,1.20633333 14.6905,1.375 C14.3861667,1.54366667 14.1386667,1.76916667 13.948,2.0515 C13.7573333,2.33383333 13.6161667,2.65466667 13.5245,3.014 C13.4328333,3.37333333 13.387,3.74 13.387,4.114 C13.387,4.488 13.4328333,4.85466667 13.5245,5.214 C13.6161667,5.57333333 13.7573333,5.89416667 13.948,6.1765 C14.1386667,6.45883333 14.3861667,6.68433333 14.6905,6.853 C14.9948333,7.02166667 15.356,7.106 15.774,7.106 C16.082,7.106 16.3533333,7.05283333 16.588,6.9465 C16.8226667,6.84016667 17.0243333,6.6935 17.193,6.5065 C17.3616667,6.3195 17.4936667,6.10133333 17.589,5.852 C17.6843333,5.60266667 17.7466667,5.335 17.776,5.049 L19.118,5.049 C19.0886667,5.51833333 18.9878333,5.94733333 18.8155,6.336 C18.6431667,6.72466667 18.4103333,7.06016667 18.117,7.3425 C17.8236667,7.62483333 17.479,7.843 17.083,7.997 C16.687,8.151 16.2506667,8.228 15.774,8.228 C15.1873333,8.228 14.6611667,8.11983333 14.1955,7.9035 C13.7298333,7.68716667 13.3356667,7.392 13.013,7.018 C12.6903333,6.644 12.4428333,6.20766667 12.2705,5.709 C12.0981667,5.21033333 12.012,4.67866667 12.012,4.114 C12.012,3.55666667 12.0981667,3.02866667 12.2705,2.53 C12.4428333,2.03133333 12.6903333,1.595 13.013,1.221 C13.3356667,0.847 13.7298333,0.55 14.1955,0.33 C14.6611667,0.11 15.1873333,0 15.774,0 C16.214,0 16.6283333,0.0605 17.017,0.1815 C17.4056667,0.3025 17.7485,0.4785 18.0455,0.7095 C18.3425,0.9405 18.5826667,1.221 18.766,1.551 C18.9493333,1.881 19.063,2.25866667 19.107,2.684 L17.732,2.684 Z" id="Path"></path>
            <path d="M20.196,2.354 L21.373,2.354 L21.373,3.454 L21.395,3.454 C21.4316667,3.3 21.5031667,3.14966667 21.6095,3.003 C21.7158333,2.85633333 21.8441667,2.7225 21.9945,2.6015 C22.1448333,2.4805 22.3116667,2.38333333 22.495,2.31 C22.6783333,2.23666667 22.8653333,2.2 23.056,2.2 C23.2026667,2.2 23.3035,2.20366667 23.3585,2.211 C23.4135,2.21833333 23.4703333,2.22566667 23.529,2.233 L23.529,3.443 C23.441,3.42833333 23.3511667,3.4155 23.2595,3.4045 C23.1678333,3.3935 23.078,3.388 22.99,3.388 C22.7773333,3.388 22.5775,3.43016667 22.3905,3.5145 C22.2035,3.59883333 22.0403333,3.7235 21.901,3.8885 C21.7616667,4.0535 21.6516667,4.257 21.571,4.499 C21.4903333,4.741 21.45,5.01966667 21.45,5.335 L21.45,8.041 L20.196,8.041 L20.196,2.354 Z" id="Path"></path>
            <path d="M24.101,0.187 L25.355,0.187 L25.355,1.375 L24.101,1.375 L24.101,0.187 Z M24.101,2.354 L25.355,2.354 L25.355,8.041 L24.101,8.041 L24.101,2.354 Z" id="Shape"></path>
            <path d="M27.665,6.215 C27.7016667,6.58166667 27.841,6.83833333 28.083,6.985 C28.325,7.13166667 28.6146667,7.205 28.952,7.205 C29.0693333,7.205 29.2031667,7.19583333 29.3535,7.1775 C29.5038333,7.15916667 29.645,7.12433333 29.777,7.073 C29.909,7.02166667 30.0171667,6.9465 30.1015,6.8475 C30.1858333,6.7485 30.2243333,6.61833333 30.217,6.457 C30.2096667,6.29566667 30.151,6.16366667 30.041,6.061 C29.931,5.95833333 29.7898333,5.87583333 29.6175,5.8135 C29.4451667,5.75116667 29.249,5.698 29.029,5.654 C28.809,5.61 28.5853333,5.56233333 28.358,5.511 C28.1233333,5.45966667 27.8978333,5.39733333 27.6815,5.324 C27.4651667,5.25066667 27.2708333,5.15166667 27.0985,5.027 C26.9261667,4.90233333 26.7886667,4.74283333 26.686,4.5485 C26.5833333,4.35416667 26.532,4.114 26.532,3.828 C26.532,3.52 26.6071667,3.2615 26.7575,3.0525 C26.9078333,2.8435 27.0985,2.67483333 27.3295,2.5465 C27.5605,2.41816667 27.8171667,2.32833333 28.0995,2.277 C28.3818333,2.22566667 28.6513333,2.2 28.908,2.2 C29.2013333,2.2 29.4818333,2.23116667 29.7495,2.2935 C30.0171667,2.35583333 30.2591667,2.45666667 30.4755,2.596 C30.6918333,2.73533333 30.8715,2.91683333 31.0145,3.1405 C31.1575,3.36416667 31.2473333,3.63366667 31.284,3.949 L29.975,3.949 C29.9163333,3.64833333 29.7788333,3.44666667 29.5625,3.344 C29.3461667,3.24133333 29.0986667,3.19 28.82,3.19 C28.732,3.19 28.6275,3.19733333 28.5065,3.212 C28.3855,3.22666667 28.2718333,3.25416667 28.1655,3.2945 C28.0591667,3.33483333 27.9693333,3.3935 27.896,3.4705 C27.8226667,3.5475 27.786,3.64833333 27.786,3.773 C27.786,3.927 27.8391667,4.05166667 27.9455,4.147 C28.0518333,4.24233333 28.1911667,4.32116667 28.3635,4.3835 C28.5358333,4.44583333 28.732,4.499 28.952,4.543 C29.172,4.587 29.3993333,4.63466667 29.634,4.686 C29.8613333,4.73733333 30.085,4.79966667 30.305,4.873 C30.525,4.94633333 30.7211667,5.04533333 30.8935,5.17 C31.0658333,5.29466667 31.2051667,5.45233333 31.3115,5.643 C31.4178333,5.83366667 31.471,6.06833333 31.471,6.347 C31.471,6.68433333 31.394,6.97033333 31.24,7.205 C31.086,7.43966667 30.8861667,7.63033333 30.6405,7.777 C30.3948333,7.92366667 30.1216667,8.03 29.821,8.096 C29.5203333,8.162 29.2233333,8.195 28.93,8.195 C28.5706667,8.195 28.2388333,8.15466667 27.9345,8.074 C27.6301667,7.99333333 27.3661667,7.8705 27.1425,7.7055 C26.9188333,7.5405 26.7428333,7.33516667 26.6145,7.0895 C26.4861667,6.84383333 26.4183333,6.55233333 26.411,6.215 L27.665,6.215 Z" id="Path"></path>
            <path d="M32.461,0.187 L33.715,0.187 L33.715,1.375 L32.461,1.375 L32.461,0.187 Z M32.461,2.354 L33.715,2.354 L33.715,8.041 L32.461,8.041 L32.461,2.354 Z" id="Shape"></path>
            <path d="M36.025,6.215 C36.0616667,6.58166667 36.201,6.83833333 36.443,6.985 C36.685,7.13166667 36.9746667,7.205 37.312,7.205 C37.4293333,7.205 37.5631667,7.19583333 37.7135,7.1775 C37.8638333,7.15916667 38.005,7.12433333 38.137,7.073 C38.269,7.02166667 38.3771667,6.9465 38.4615,6.8475 C38.5458333,6.7485 38.5843333,6.61833333 38.577,6.457 C38.5696667,6.29566667 38.511,6.16366667 38.401,6.061 C38.291,5.95833333 38.1498333,5.87583333 37.9775,5.8135 C37.8051667,5.75116667 37.609,5.698 37.389,5.654 C37.169,5.61 36.9453333,5.56233333 36.718,5.511 C36.4833333,5.45966667 36.2578333,5.39733333 36.0415,5.324 C35.8251667,5.25066667 35.6308333,5.15166667 35.4585,5.027 C35.2861667,4.90233333 35.1486667,4.74283333 35.046,4.5485 C34.9433333,4.35416667 34.892,4.114 34.892,3.828 C34.892,3.52 34.9671667,3.2615 35.1175,3.0525 C35.2678333,2.8435 35.4585,2.67483333 35.6895,2.5465 C35.9205,2.41816667 36.1771667,2.32833333 36.4595,2.277 C36.7418333,2.22566667 37.0113333,2.2 37.268,2.2 C37.5613333,2.2 37.8418333,2.23116667 38.1095,2.2935 C38.3771667,2.35583333 38.6191667,2.45666667 38.8355,2.596 C39.0518333,2.73533333 39.2315,2.91683333 39.3745,3.1405 C39.5175,3.36416667 39.6073333,3.63366667 39.644,3.949 L38.335,3.949 C38.2763333,3.64833333 38.1388333,3.44666667 37.9225,3.344 C37.7061667,3.24133333 37.4586667,3.19 37.18,3.19 C37.092,3.19 36.9875,3.19733333 36.8665,3.212 C36.7455,3.22666667 36.6318333,3.25416667 36.5255,3.2945 C36.4191667,3.33483333 36.3293333,3.3935 36.256,3.4705 C36.1826667,3.5475 36.146,3.64833333 36.146,3.773 C36.146,3.927 36.1991667,4.05166667 36.3055,4.147 C36.4118333,4.24233333 36.5511667,4.32116667 36.7235,4.3835 C36.8958333,4.44583333 37.092,4.499 37.312,4.543 C37.532,4.587 37.7593333,4.63466667 37.994,4.686 C38.2213333,4.73733333 38.445,4.79966667 38.665,4.873 C38.885,4.94633333 39.0811667,5.04533333 39.2535,5.17 C39.4258333,5.29466667 39.5651667,5.45233333 39.6715,5.643 C39.7778333,5.83366667 39.831,6.06833333 39.831,6.347 C39.831,6.68433333 39.754,6.97033333 39.6,7.205 C39.446,7.43966667 39.2461667,7.63033333 39.0005,7.777 C38.7548333,7.92366667 38.4816667,8.03 38.181,8.096 C37.8803333,8.162 37.5833333,8.195 37.29,8.195 C36.9306667,8.195 36.5988333,8.15466667 36.2945,8.074 C35.9901667,7.99333333 35.7261667,7.8705 35.5025,7.7055 C35.2788333,7.5405 35.1028333,7.33516667 34.9745,7.0895 C34.8461667,6.84383333 34.7783333,6.55233333 34.771,6.215 L36.025,6.215 Z" id="Path"></path>
        </g>
        <g id="Group" transform="translate(23.000000, 28.000000)" fill="#000000">
            <rect id="Rectangle" x="0" y="0" width="6" height="5"></rect>
        </g>
    </g>
</svg>